<svg xmlns="http://www.w3.org/2000/svg" viewBox="0 0 449.95 107.32"><defs><style>.cls-1,.cls-2{fill:none;stroke:#fff;}.cls-1{stroke-miterlimit:10;}</style></defs><g id="Layer_2" data-name="Layer 2"><g id="Layer_1-2" data-name="Layer 1"><rect class="cls-1" x="0.5" y="0.5" width="448.95" height="106.32"/><rect class="cls-1" x="9.45" y="7.34" width="432.11" height="92.63"/><path class="cls-1" d="M20,53.58c3.72-.24,5.19-1.29,8.35-5.43L51.88,15.43H53l26.16,38H85v2H54.27V53.58h7.85L55,43.43H34.42c-2.45,3-3.36,4.72-3.36,6.24,0,1.28.84,2.33,2.45,3s2.88.82,6.1.88l-.07,1.86H20ZM53.57,41.5,45,28.44,36.39,41.5Z"/><path class="cls-1" d="M86.73,53.52h6.81v-23H86.38v-1.7c2.11.06,3.16.06,4.63.06,4.28,0,8.21-.17,16.55-.64v4.32c5.12-4,9.4-5.49,16-5.49,7.51,0,13.89,2.57,16.27,6.48a15.08,15.08,0,0,1,1.76,7.35v12.6h6.59v1.92H120V53.52h7V37.83a7.3,7.3,0,0,0-.56-3.5c-1.12-2.69-4.49-4.55-8.14-4.55-5.54,0-11,4-10.73,7.87l.07.94V53.52h7.23v1.92H86.73Z"/><path class="cls-1" d="M150.06,29.37c9.75-.06,13.75-2.33,17-9.57h1.75l.07,9.22h9.4v1.92h-9.54v16.4c0,3.32.07,3.85.71,4.72a4.28,4.28,0,0,0,3.71,1.75,4.13,4.13,0,0,0,3.86-2.1c.35-.76.42-1.57.49-6.24h2.1v.64c0,5-.63,7.23-2.52,8.4s-5.26,2-9.19,2c-5.26,0-9.11-1.28-11-3.67a9.2,9.2,0,0,1-1.54-5.25V30.94h-5.26Z"/><path class="cls-1" d="M185.89,30.13H181.2V28.2h29.52v1.93h-8.27l10.16,13.36,11-15.29h1.48l12.27,15.52,5.82-8.17a10.66,10.66,0,0,0,1.12-2.91c0-1.87-1.61-2.51-6.52-2.51V28.2h14.73v1.93c-2.81,0-4,.87-7.08,5.31l-14.1,20h-1.61l-12.07-15.8-11,15.75-1.54,0Z"/><path class="cls-1" d="M306.8,46.69a3.71,3.71,0,0,1,.07.7c0,6.48-3.23,9-11.57,9-7.23,0-8.84-.7-11.93-5.19a15.79,15.79,0,0,1-3.22,3c-2.53,1.63-7.3,2.63-13,2.63-9.39,0-14.44-2.63-14.44-7.53a6.63,6.63,0,0,1,3.92-5.83c1.9-1,6.53-1.81,13-2.28,8.69-.58,13.39-2.8,13.39-6.24S278.67,29,272.36,29c-5.61,0-10,.87-12.27,2.45a10.71,10.71,0,0,1,2.67-.41c3.36,0,6.1,1.75,6.1,3.91,0,2.39-2.81,4.14-6.67,4.14-4.13,0-6.94-1.81-6.94-4.49,0-2,1.33-3.5,4.07-4.73,3.5-1.51,11.5-2.68,18.44-2.68s12.7,1.28,15.64,3.5,3.86,4.73,3.86,11.26l-.21,6.53c0,3.56,1.26,5.43,3.72,5.43A4,4,0,0,0,304.13,52c.35-.64.42-1.11.63-4.14l.07-.93v-.24Zm-31.56-4.55c-6,1.7-8.7,3.85-8.7,7s3,5.6,6.87,5.6c3,0,6.39-1.51,7.86-3.5,1.19-1.63,1.68-3.85,1.68-7.35a45.91,45.91,0,0,0-.28-4.84C280.71,40.51,280,40.8,275.24,42.14Z"/><path class="cls-1" d="M308.69,29c9.46-.12,10.94-.18,20.33-.76V46.69c0,4.67,3,7.53,7.79,7.53a11.7,11.7,0,0,0,9.47-5,7,7,0,0,0,1.19-4.49V30.83h-7.86V29c10.66-.12,12.28-.12,22.23-.76V53.52h6.39v1.92c-4.07,0-5.33,0-8.77,0s-6.38.11-12,.46V50.6c-3.86,4.32-8.14,5.89-15.92,5.89-11,0-17-4.14-17-11.72V30.83h-5.89Z"/><path class="cls-1" d="M371.38,53.52h6.8v-23H371v-1.7c2.1.06,3.16.06,4.63.06,4.28,0,8.2-.17,16.55-.64v4.32c5.12-4,9.4-5.49,16-5.49,7.5,0,13.88,2.57,16.27,6.48a15.2,15.2,0,0,1,1.75,7.35v12.6h6.59v1.92H404.62V53.52h7V37.83a7.16,7.16,0,0,0-.57-3.5c-1.12-2.69-4.48-4.55-8.13-4.55-5.54,0-11,4-10.73,7.87l.07.94V53.52h7.22v1.92H371.38Z"/><path class="cls-2" d="M74.51,88.68a39.89,39.89,0,0,1-13.63-2.09C55,84.36,52.58,81.18,52.58,76c0-4,1.35-6.52,4.51-8.53,3.34-2.08,8.57-3.22,14.8-3.22,7,0,13.9,1.37,17.87,3.6a13.27,13.27,0,0,1,5.95,6.56h2.62V63.78h-1.8l-6.41,1.75c-7-1.9-11.91-2.46-20.49-2.46-10.64,0-19.31,1.06-25.53,3.14-7,2.31-11.28,6.29-11.28,10.57C32.82,85,47,90,70.18,90c11.28,0,19-1.4,24.18-4.39,2.8-1.63,4.06-3.14,4.6-5.38H96.07C94.45,85.42,86.15,88.68,74.51,88.68Z"/><path class="cls-2" d="M178.1,67.42c-7.76-2.8-18.77-4.35-31.22-4.35-23.38,0-39.71,5.41-39.71,13.18,0,3.9,3.07,7,9.3,9.4,6.94,2.72,18.4,4.31,30.77,4.31,24.45,0,40.42-5.3,40.42-13.41C187.66,72.76,184.41,69.7,178.1,67.42ZM162.85,85.65c-3.34,2.27-8.48,3.37-15.52,3.37-5.51,0-10.47-.87-13.9-2.46A10.49,10.49,0,0,1,127,76.63a11.57,11.57,0,0,1,4.88-9c3.43-2.42,8.39-3.52,15.88-3.52,6.5,0,11.46.91,14.44,2.69a11,11,0,0,1,5.68,9.51A11.56,11.56,0,0,1,162.85,85.65Z"/><path class="cls-2" d="M263.46,65.91c-5.14-1.33-10.65-1.75-23.1-1.75H193.71v1h10.65V88.18H193.89v1.25h46.92c8.66,0,14.44-.49,20.31-1.74,10.37-2.23,16-6,16-10.83S271.94,68,263.46,65.91ZM250,86.14c-3.25,1.36-9.12,2.08-16.88,2.08h-8.57V65h8.57c7.22,0,12.18.6,15.88,2,5.24,1.93,8,5.38,8,9.85C257.05,81,254.62,84.24,250,86.14Z"/><path class="cls-2" d="M280.43,65.11h11.28V88.18H280.43v1.25h75.35V79.13h-3.34v.57c0,3.26-5.33,6.44-13,7.8a59.82,59.82,0,0,1-11.46.8H311.47V77.23h6.32c7.85-.15,13.71,2.51,13.53,6.1h3.34V70h-3.34c.18,4.13-4.15,6-13.53,6h-6.32V65.11h12.9c17.51-.19,28.07,3.22,28.16,9.13H356V64.16H280.43Z"/><path class="cls-2" d="M423.09,74.73C418.22,73.48,408.2,72.65,390,72c-9.66-.34-13.9-1.44-13.9-3.56,0-2.72,7.13-4.47,18.14-4.47,9.47,0,16.24,1.06,22.29,3.53,3.78,1.51,6.22,3.18,7.3,5h2.71V63.63h-2.25l-5.87,2c-11.82-2.16-15.52-2.57-24.09-2.57-17,0-27.16,3.37-27.16,8.94,0,2.19,1.71,4,5,5.38C376,79,383.75,80,395,80.34c12.45.38,18.59,1,21.84,2.2,1.35.53,2.25,1.44,2.25,2.35,0,2.57-6.5,4.09-17.59,4.09q-15.3,0-24.37-4c-3.25-1.48-5.41-3.14-6.22-4.89h-2.71V88.9h2.52l5.06-1.44c12,2.13,15.43,2.47,24.45,2.47,9.93,0,17.51-.84,22.38-2.47s7.94-4.28,7.94-7S428.15,76,423.09,74.73Z"/></g></g></svg>