<svg xmlns="http://www.w3.org/2000/svg" viewBox="0 0 626.74 59.69"><defs><style>.cls-1{fill:#fcfcfc;}</style></defs><g id="Layer_2" data-name="Layer 2"><g id="Layer_1-2" data-name="Layer 1"><path class="cls-1" d="M38.67,3.82,6.26,16C1.58,17.64,0,21.31,0,23.62s1.66,5.83,6.26,7.49L38.31,43.92c3.38-9.72-.36-16-7.64-19.08L27,23.62l3.75-1.3C36.87,19.87,41.69,15.91,38.67,3.82Z"/><path class="cls-1" d="M563.45,3.38l-.07.08L537.46,59.69h14c3.31,0,6-1.73,6.77-3.53L583.83,0H570.15C566.84,0,564.32,1.73,563.45,3.38Z"/><path class="cls-1" d="M620.48,16,588.07,3.82c-3,12.09,1.8,16.05,7.92,18.5l3.75,1.3-3.67,1.22c-7.28,3.1-11,9.36-7.64,19.08l32.05-12.81c4.61-1.66,6.26-5.12,6.26-7.49S625.16,17.64,620.48,16Z"/><path class="cls-1" d="M69.4,7.74,56,42l10.22,3.45L69,37.55H80.46l2.63,7.87L93.24,42,80,7.74Zm2.71,22,2.56-6.84,2.78,6.84Z"/><polygon class="cls-1" points="118.21 24.44 106.1 6.64 97.75 9.12 98.73 16.16 98.73 43.69 109.64 43.69 109.64 30.31 119.49 43.69 129.19 43.69 129.19 7.81 118.21 7.81 118.21 24.44"/><polygon class="cls-1" points="133.7 17.13 142.88 17.13 142.88 36.93 148.89 45.07 157.47 41.83 153.78 34.03 153.78 17.13 162.73 17.13 162.73 7.74 133.7 7.74 133.7 17.13"/><polygon class="cls-1" points="201.91 26.79 196.5 9.05 187.02 9.05 181.68 26.93 175.14 6.43 164.99 9.61 175.97 43.76 187.47 43.76 191.76 29.2 196.2 43.76 207.71 43.76 218.38 9.61 208.31 6.36 201.91 26.79"/><path class="cls-1" d="M233.65,7.74,220.26,42l10.23,3.45,2.78-7.87H244.7l2.64,7.87L257.49,42,244.25,7.74Zm2.71,22,2.55-6.84,2.79,6.84Z"/><path class="cls-1" d="M280.65,32.79c0,.62-.3,1.93-4.59,1.93s-4.58-1.31-4.58-1.93V7.88h-11V33.76c0,1.58,0,10.42,15.56,10.42s15.57-10.42,15.57-10.42V7.88h-11Z"/><polygon class="cls-1" points="319.61 24.44 307.5 6.64 299.15 9.12 300.13 16.16 300.13 43.69 311.04 43.69 311.04 30.31 320.89 43.69 330.59 43.69 330.59 7.81 319.61 7.81 319.61 24.44"/><path class="cls-1" d="M365.48,16.64c1.43,0,5.79.35,12.41,3.39l4.36-8.15A43.5,43.5,0,0,0,364,7.33c-2.86,0-11.59.55-11.59,10.56V33.76c0,10,8.73,10.62,11.59,10.62,9.62,0,18.27-4.76,18.27-4.76l-4.36-8c-6.62,3-11,3.31-12.41,3.31s-2.18-.62-2.18-1.24V17.89C363.3,17.33,364,16.64,365.48,16.64Z"/><path class="cls-1" d="M402,7.12c-14.9,0-15.57,8.77-15.57,10.42V34c0,1.66,0,10.42,15.57,10.42S417.52,34,417.52,34V17.54C417.52,15.89,417.52,7.12,402,7.12Zm4.58,26c0,.48-.3,1.86-4.58,1.86s-4.59-1.38-4.59-1.86V18.71c0-.48.3-2.13,4.59-2.13s4.58,1.65,4.58,2.13Z"/><path class="cls-1" d="M444.3,7.74H425.42v36h8.8l.83-2.14a19.65,19.65,0,0,0,9.25,2.49c2.63,0,11.5-.69,11.5-10.63V19C455.8,7.74,444.3,7.74,444.3,7.74Zm.75,25.12a1.85,1.85,0,0,1-2,1.86c-1.35,0-3.53-.69-6.77-2.76V17.27h6.85A1.74,1.74,0,0,1,445.05,19Z"/><polygon class="cls-1" points="463.7 43.76 491.38 43.76 491.38 34.45 474.6 34.45 474.6 29 486.26 29 486.26 20.3 474.6 20.3 474.6 17.27 491.38 17.27 491.38 7.74 463.7 7.74 463.7 43.76"/><path class="cls-1" d="M515.44,21.06l-7.9-1.79s-.75-.14-.75-.21V17.82c0-.83.38-1.31,2.18-1.31,1.35,0,5.79.34,12.41,3.31l4.29-8.07a42.55,42.55,0,0,0-18.28-4.63c-2.78,0-11.51.55-11.51,10.63v1.31s1.28,7.59,10.31,9.66l8,1.86s.83.14.83.55v1.18c0,1.31-.6,2.55-4.29,2.55-2.11,0-7.45-2.62-10.68-6.28l-4.89,8.56c3.91,4.34,10.76,7.24,15.57,7.24,11.36,0,15.19-5.24,15.19-12.07V31.07C525.89,28.31,525.74,23.41,515.44,21.06Z"/></g></g></svg>