<svg id="Layer_1" data-name="Layer 1" xmlns="http://www.w3.org/2000/svg" xmlns:xlink="http://www.w3.org/1999/xlink" viewBox="0 0 315.91 363.18"><defs><style>.cls-1{fill:none;}.cls-2{clip-path:url(#clip-path);}.cls-13,.cls-3,.cls-5{fill:#c51b29;}.cls-3{stroke:#cfb53b;}.cls-3,.cls-4{stroke-miterlimit:10;}.cls-4{fill:#b59c2c;stroke:#b59c2c;stroke-width:3px;}.cls-5{font-size:31.6px;font-family:BelyDisplay-Regular, Bely Display;}.cls-6{letter-spacing:-0.05em;}.cls-7{letter-spacing:-0.02em;}.cls-8{letter-spacing:-0.01em;}.cls-9{letter-spacing:-0.07em;}.cls-10{letter-spacing:-0.06em;}.cls-11{letter-spacing:-0.01em;}.cls-12{letter-spacing:0em;}.cls-13{font-size:16.96px;font-family:Bely-Regular, Bely;}.cls-14{letter-spacing:0em;}.cls-15{letter-spacing:-0.03em;}.cls-16{letter-spacing:0em;}</style><clipPath id="clip-path" transform="translate(-92.09 -46.82)"><rect class="cls-1" x="123.04" y="47.32" width="253.11" height="290.68"/></clipPath></defs><g class="cls-2"><path class="cls-3" d="M260.59,138a49.42,49.42,0,0,0,13.74,2.29c4.59,0,6.88-6.88,6.88-6.88C269.75,127.69,260.59,138,260.59,138Zm53.83-42.49c-10.31-2.29-18.32,5.75-18.32,5.75,1.14,3.44,12.59,1.14,12.59,1.14-1.15,2.3,0,12.63,0,12.63C319,104.73,314.42,95.54,314.42,95.54Zm-14.89,43.63c0-12.62-22.9-37.88-28.63-37.88-5.34,0-19.15,17.22-21,19.54v.26a.93.93,0,0,1-.1-.13l-.11.13v-.26c-1.83-2.32-15.64-19.54-21-19.54-5.72,0-28.63,25.26-28.63,37.88s11.46,34.45,18.33,34.45c0,0,10.37-7.57,13.14-10.68-2.16,2.95-9.54,13.14-8.56,14.12s9.25,7.79,13.07,9.25c-2.63-.12-7.87-1-14.22-5.8,0,0-3.43,1.15-2.29,5.74,0,0,6.87,6.89,14.89,4.59,0,0-4.58,4.6-13.74,0,0,0,12.59,16.08,26.33-2.29,5.73-24.12-10.3-19.52-10.3-19.52V157.54s5.62,10.14,13,7.54V165l.11,0,.1,0v.07c7.34,2.6,13-7.54,13-7.54V169s-16-4.6-10.32,19.52c13.75,18.37,26.35,2.29,26.35,2.29-9.17,4.6-13.74,0-13.74,0,8,2.3,14.88-4.59,14.88-4.59,1.15-4.59-2.29-5.74-2.29-5.74-6.35,4.77-11.59,5.68-14.21,5.8,3.81-1.46,12.14-8.32,13.07-9.25s-6.4-11.17-8.58-14.12c2.78,3.11,13.16,10.68,13.16,10.68C288.08,173.62,299.53,151.8,299.53,139.17Zm-33.21,62c-8.55,0-15.59-7.41-16.5-8.4-.91,1-8,8.4-16.51,8.4-9.16,0-1.14,16.07,1.15,16.07s5.68,3.39,15.25-2.74v-.13l.11.06.1-.06v.13c9.58,6.13,13,2.74,15.26,2.74S275.48,201.18,266.32,201.18Zm-75.38-98.75s11.45,2.3,12.6-1.14c0,0-8-8-18.32-5.75,0,0-4.59,9.19,5.72,19.52C190.94,115.06,192.09,104.73,190.94,102.43Zm185.31,80.38s-18.32-25.27-63-26.41c0,0,80.16,20.66,47,89.55,0,0-3.43-37.88-44.66-63.14,0,0,57.26,57.4,10.31,96.44,0,0,2.29-56.26-27.49-89.55,0,0,43.52,85-8,125.15,0,0,14.88-36.75-2.29-82.67,0,0,8,71.18-17.18,94.15,0,0,11.45-27.56,4.58-80.38,0,0-1.14,68.89-25.56,91.86V338a.94.94,0,0,1-.1-.1l-.11.1v-.19c-24.42-23-25.56-91.86-25.56-91.86-6.87,52.82,4.58,80.38,4.58,80.38-25.19-23-17.17-94.15-17.17-94.15-17.18,45.92-2.29,82.67-2.29,82.67-51.54-40.19-8-125.15-8-125.15-29.78,33.29-27.48,89.55-27.48,89.55-47-39,10.3-96.44,10.3-96.44C142.84,208.07,139.41,246,139.41,246c-33.21-68.89,47-89.55,47-89.55-44.66,1.14-63,26.41-63,26.41,3.43-33.3,57.25-42.49,57.25-42.49-30.92-6.88-57.25,10.33-57.25,10.33,21.75-33.29,59.54-32.14,59.54-32.14-9.15-6.89-51.53,0-51.53,0l16-9.19c2.29-1.14,32.07-2.29,32.07-2.29-2.29-4.6-27.48-4.6-27.48-4.6l-4.59-9.18c6.88-2.3,32.07,3.45,32.07,3.45-1.15-3.45-22.9-9.19-22.9-9.19,44.66-29.85,79,10.33,79,10.33C223,69.14,184.07,64.55,184.07,64.55c11.45-12.64,27.49-14.93,27.49-14.93C231,58.8,245.91,107,245.91,107,243.62,72.58,223,47.32,223,47.32c6.59,0,25.28,3.7,26.81,4,1.52-.3,20.22-4,26.81-4,0,0-20.62,25.26-22.91,59.71,0,0,14.89-48.23,34.36-57.41,0,0,16,2.29,27.48,14.93,0,0-38.93,4.59-51.53,33.29,0,0,34.35-40.18,79-10.33,0,0-21.76,5.74-22.91,9.19,0,0,25.2-5.75,32.07-3.45l-4.58,9.18s-25.2,0-27.49,4.6c0,0,29.78,1.15,32.07,2.29l16,9.19s-42.37-6.89-51.53,0c0,0,37.78-1.15,59.54,32.14,0,0-26.33-17.21-57.25-10.33C319,140.32,372.82,149.51,376.25,182.81ZM239,138a49.42,49.42,0,0,1-13.74,2.29c-4.58,0-6.87-6.88-6.87-6.88C229.88,127.69,239,138,239,138" transform="translate(-92.09 -46.82)"/></g><line class="cls-4" x1="0.91" y1="339.68" x2="315.91" y2="340.68"/><text class="cls-5" transform="translate(0 334.63)"><tspan class="cls-6">R</tspan><tspan class="cls-7" x="23.7" y="0">e</tspan><tspan class="cls-8" x="39" y="0">d</tspan><tspan x="59.38" y="0">d </tspan><tspan class="cls-9" x="86.96" y="0">L</tspan><tspan class="cls-10" x="106.18" y="0">y</tspan><tspan x="123.27" y="0">on Fina</tspan><tspan class="cls-11" x="240.48" y="0">n</tspan><tspan class="cls-12" x="260.92" y="0">cial</tspan></text><text class="cls-13" transform="translate(43.5 358.55) scale(1.25 1)">Where Oppor<tspan class="cls-14" x="92.56" y="0">n</tspan><tspan x="101.56" y="0">unities </tspan><tspan class="cls-15" x="150.66" y="0">R</tspan><tspan class="cls-14" x="161.66" y="0">o</tspan><tspan class="cls-16" x="169.89" y="0">ar</tspan></text></svg>